<?xml version="1.0" encoding="UTF-8"?>
<!-- Creator: CorelDRAW -->
<svg xmlns="http://www.w3.org/2000/svg" xmlns:xlink="http://www.w3.org/1999/xlink" xml:space="preserve" width="96.208mm" height="148.439mm" style="shape-rendering:geometricPrecision; text-rendering:geometricPrecision; image-rendering:optimizeQuality; fill-rule:evenodd; clip-rule:evenodd" viewBox="0 0 87.2044 134.547">
 <defs>
  <style type="text/css">
   <![CDATA[
    .fil0 {fill:#1F1A17}
    .fil2 {fill:#0000CC}
    .fil1 {fill:red}
    .fil3 {fill:white}
   ]]>
  </style>
 </defs>
 <g id="Layer_x0020_1">
  <metadata id="CorelCorpID_0Corel-Layer"></metadata>
  <path class="fil0" d="M6.20477 104.872c1.36796,0 2.44279,-0.28688 3.07791,-0.764924 0.683981,-0.525811 1.02606,-1.38627 1.02606,-2.53361 0,-1.05171 -0.342081,-1.91217 -0.92835,-2.43808 -0.635125,-0.57358 -1.6611,-0.86046 -2.93135,-0.86046l-0.244279 0 0 6.59707zm-6.20487 5.21062l0 -17.0662 5.03224 0c1.61233,0 3.02915,0.0956268 4.15283,0.239022 1.12377,0.191254 2.10089,0.478043 2.78487,0.86046 1.51453,0.764924 2.73592,1.81655 3.51771,3.05951 0.781692,1.29074 1.22139,2.77263 1.22139,4.39802 0,1.62538 -0.439702,3.10728 -1.22139,4.35016 -0.781783,1.24297 -2.00318,2.34245 -3.51771,3.10737 -0.732837,0.382417 -1.70995,0.669206 -2.83373,0.812601 -1.12368,0.143486 -2.68707,0.239022 -4.54368,0.239022l-4.59253 0zm19.3473 0l0 -17.0662 11.6768 0 0 4.63704 -5.52079 0 0 1.62538 4.98338 0 0 4.39802 -4.98338 0 0 1.76869 5.66736 0 0 4.63704 -11.8234 0zm27.2132 -10.2779c-0.586269,-0.525811 -1.17254,-0.956087 -1.75881,-1.19511 -0.586269,-0.28679 -1.22139,-0.430275 -1.90547,-0.430275 -0.977116,0 -1.85652,0.334649 -2.44279,0.956087 -0.586269,0.621529 -0.92826,1.48199 -0.92826,2.48584 0,1.00395 0.293135,1.81664 0.879404,2.39022 0.586269,0.57367 1.41682,0.908319 2.39393,0.908319 0.58636,0 1.22149,-0.143395 1.80775,-0.382417 0.635125,-0.239022 1.36796,-0.669297 2.1008,-1.24297l-0.244279 6.45368c-0.683981,0.28679 -1.36796,0.525811 -2.05194,0.621438 -0.683981,0.0956268 -1.36805,0.191254 -2.05203,0.191254 -0.830548,0 -1.6611,-0.0956268 -2.44279,-0.239112 -0.781692,-0.191163 -1.51462,-0.478043 -2.14974,-0.812601 -1.51453,-0.860551 -2.68707,-1.96003 -3.46876,-3.29854 -0.781783,-1.3385 -1.17263,-2.86826 -1.17263,-4.58927 0,-1.24288 0.244279,-2.48584 0.635125,-3.53747 0.439793,-1.09957 1.12377,-2.10343 1.95432,-2.91612 0.879404,-0.812692 1.90538,-1.4819 3.02915,-1.91217 1.12368,-0.430275 2.39393,-0.669297 3.71304,-0.669297 0.683981,0 1.41691,0.0956268 2.10089,0.239022 0.683981,0.143486 1.36796,0.382507 2.00309,0.669297l0 6.31019zm11.5302 5.01946c0.879404,0 1.61224,-0.28679 2.1008,-0.86046 0.537414,-0.57367 0.830548,-1.38636 0.830548,-2.34245 0,-0.956087 -0.293135,-1.81655 -0.781692,-2.39022 -0.537414,-0.57367 -1.27025,-0.908228 -2.14965,-0.908228 -0.879495,0 -1.61233,0.334558 -2.10089,0.908228 -0.537414,0.57367 -0.830548,1.43413 -0.830548,2.39022 0,0.956087 0.293135,1.72101 0.781692,2.29468 0.537414,0.57358 1.27025,0.908228 2.14974,0.908228zm9.33164 -3.20291c0,1.24297 -0.244279,2.43808 -0.684072,3.48979 -0.439702,1.05171 -1.12368,2.05557 -2.00309,2.91603 -0.879404,0.812692 -1.90538,1.48199 -3.02915,1.86441 -1.12368,0.430185 -2.39393,0.669297 -3.66418,0.669297 -1.27034,0 -2.54059,-0.239112 -3.61542,-0.621529 -1.12368,-0.430185 -2.1986,-1.09948 -3.078,-1.95994 -0.830548,-0.812692 -1.51453,-1.76878 -1.90538,-2.82049 -0.439702,-1.05171 -0.683981,-2.29459 -0.683981,-3.53756 0,-1.24288 0.244279,-2.48584 0.635125,-3.53747 0.439702,-1.05171 1.12368,-2.05566 1.95423,-2.86835 0.879404,-0.812601 1.90547,-1.4819 3.02915,-1.91217 1.12368,-0.430185 2.39393,-0.669206 3.66427,-0.669206 1.31911,0 2.58936,0.239022 3.66418,0.669206 1.12377,0.430275 2.1986,1.09957 3.078,1.91217 0.830548,0.860551 1.51453,1.81664 1.95423,2.86835 0.439793,1.05162 0.684072,2.29459 0.684072,3.53747zm8.79413 -4.20676l0 3.3463 0.92835 0c0.586269,0 1.12368,-0.143395 1.41682,-0.382417 0.293135,-0.28688 0.488558,-0.717065 0.488558,-1.24297 0,-0.525811 -0.195423,-0.956087 -0.488558,-1.24288 -0.293135,-0.28679 -0.830548,-0.478043 -1.41682,-0.478043l-0.92835 0zm-6.15592 12.6681l0 -17.0662 7.86596 0c2.24737,0 4.05512,0.525811 5.22766,1.4819 1.22139,1.00395 1.85652,2.48584 1.85652,4.30248 0,1.19511 -0.34199,2.19896 -0.92826,2.96389 -0.586269,0.764833 -1.46567,1.29064 -2.49164,1.38627l4.69025 6.93163 -7.03541 0 -3.02915 -5.59313 0 5.59313 -6.15592 0z"></path>
  <path class="fil0" d="M0.206572 126.201l0 -11.3432 4.85467 0c1.72717,0 3.03413,0.326763 3.78102,0.980288 0.746886,0.700206 1.16701,1.72717 1.16701,3.17427 0,1.30696 -0.373443,2.38061 -1.02697,2.94077 -0.700206,0.606845 -1.91381,0.933608 -3.45426,0.933608l-1.21369 0 0 3.31422 -4.10778 0zm4.10778 -8.21557l0 1.91381 0.606845 0c0.373443,0 0.653525,-0.0933608 0.840247,-0.233402 0.186722,-0.140041 0.373443,-0.373443 0.373443,-0.653435 0,-0.280082 -0.186722,-0.560165 -0.373443,-0.746886 -0.186722,-0.186722 -0.513484,-0.280082 -0.840247,-0.280082l-0.606845 0zm20.2123 -0.233402l0 2.24057 0.606845 0c0.373443,0 0.700206,-0.0933608 0.933608,-0.280082 0.186722,-0.186722 0.326763,-0.466804 0.326763,-0.793476 0,-0.326763 -0.140041,-0.653525 -0.326763,-0.840247 -0.233402,-0.186722 -0.560165,-0.326763 -0.933608,-0.326763l-0.606845 0zm-4.01442 8.44897l0 -11.3432 5.08807 0c1.49377,0 2.70737,0.326763 3.45426,0.980288 0.746886,0.700206 1.21369,1.63381 1.21369,2.89418 0,0.746796 -0.186722,1.447 -0.606845,1.96049 -0.373443,0.513484 -0.933608,0.840247 -1.58713,0.886927l3.03422 4.62127 -4.62127 0 -1.96058 -3.68766 0 3.68766 -4.01442 0zm20.399 0l0 -11.3432 7.60881 0 0 3.08091 -3.5943 0 0 1.07365 3.26754 0 0 2.89409 -3.26754 0 0 1.21369 3.68766 0 0 3.08081 -7.70217 0zm17.4116 -0.980197l1.26028 -3.17427c0.606845,0.420123 1.12033,0.746886 1.54045,0.886927 0.420123,0.186722 0.933608,0.280082 1.30705,0.280082 0.280082,0 0.513484,-0.0466804 0.653525,-0.140041 0.140041,-0.0933608 0.233402,-0.233402 0.233402,-0.420123 0,-0.326763 -0.420123,-0.606845 -1.16701,-0.746886 -0.233402,-0.0466804 -0.466804,-0.140041 -0.653525,-0.140041 -0.793567,-0.186722 -1.44709,-0.560165 -1.9139,-1.02697 -0.420033,-0.560165 -0.653435,-1.26037 -0.653435,-2.00717 0,-1.21369 0.420123,-2.19398 1.30696,-2.98754 0.840247,-0.746886 2.00726,-1.12033 3.45435,-1.12033 0.606845,0 1.26037,0.0933608 1.82053,0.233402 0.653435,0.186722 1.30696,0.466804 1.96049,0.793567l-1.26037 2.98754c-0.373443,-0.326763 -0.793476,-0.560165 -1.16692,-0.700206 -0.373443,-0.140041 -0.746886,-0.233402 -1.12033,-0.233402 -0.280082,0 -0.560165,0.0466804 -0.653525,0.140041 -0.140041,0.0933608 -0.233402,0.233402 -0.233402,0.420123 0,0.326763 0.606845,0.653525 1.68049,0.840247 0.140041,0.0465897 0.280082,0.0932701 0.373443,0.0932701 0.793476,0.186722 1.447,0.560165 1.86712,1.07365 0.466804,0.560165 0.746886,1.21369 0.746886,1.96058 0,1.26037 -0.513484,2.33402 -1.35373,3.08091 -0.933517,0.746796 -2.14721,1.2136 -3.5943,1.2136 -0.700206,0 -1.49377,-0.0933608 -2.19398,-0.326763 -0.746886,-0.186722 -1.54036,-0.560165 -2.24057,-0.933517l0 -0.0466804zm18.7186 0l1.30705 -3.17427c0.560074,0.420123 1.07356,0.746886 1.54036,0.886927 0.420123,0.186722 0.886927,0.280082 1.26037,0.280082 0.280082,0 0.560165,-0.0466804 0.700206,-0.140041 0.140041,-0.0933608 0.233402,-0.233402 0.233402,-0.420123 0,-0.326763 -0.420123,-0.606845 -1.21369,-0.746886 -0.233402,-0.0466804 -0.466804,-0.140041 -0.606845,-0.140041 -0.840247,-0.186722 -1.49377,-0.560165 -1.91381,-1.02697 -0.420123,-0.560165 -0.653525,-1.26037 -0.653525,-2.00717 0,-1.21369 0.420123,-2.19398 1.26028,-2.98754 0.886927,-0.746886 2.00726,-1.12033 3.45435,-1.12033 0.606845,0 1.30705,0.0933608 1.86722,0.233402 0.606845,0.186722 1.30696,0.466804 1.96049,0.793567l-1.30696 2.98754c-0.373443,-0.326763 -0.746886,-0.560165 -1.12033,-0.700206 -0.420123,-0.140041 -0.793567,-0.233402 -1.16701,-0.233402 -0.280082,0 -0.513484,0.0466804 -0.606845,0.140041 -0.140041,0.0933608 -0.233402,0.233402 -0.233402,0.420123 0,0.326763 0.560165,0.653525 1.68049,0.840247 0.140041,0.0465897 0.280082,0.0932701 0.373443,0.0932701 0.746886,0.186722 1.40032,0.560165 1.86712,1.07365 0.466804,0.560165 0.700206,1.21369 0.700206,1.96058 0,1.26037 -0.466804,2.33402 -1.35373,3.08091 -0.886837,0.746796 -2.14721,1.2136 -3.54762,1.2136 -0.746886,0 -1.49377,-0.0933608 -2.24066,-0.326763 -0.746796,-0.186722 -1.49368,-0.560165 -2.24057,-0.933517l0 -0.0466804z"></path>
  <path class="fil1" d="M44.2887 14.0156c0,0 -2.56017,12.9333 -11.918,22.3352 -2.33946,2.33946 -16.4204,12.4037 -6.62109,28.206 3.44293,0 10.5937,0 10.5937,0 0,0 -9.35783,-9.35783 -1.76561,-18.8481 3.00159,-3.70787 6.93018,-9.26964 6.93018,-9.26964 0,0 5.82653,-6.44452 2.78079,-22.4235z"></path>
  <path class="fil2" d="M51.1174 75.3714c0,0 5.87076,-5.60591 1.94218,-13.154 -0.9269,-2.03046 -2.86917,-4.67892 -4.67892,-6.44452 -1.76561,-2.03046 -4.63477,-5.82662 -2.6926,-11.0794 0.17657,2.78088 1.01528,6.88595 6.79775,12.2711 2.20703,2.29541 7.90122,7.3716 3.97264,15.2728 -1.10356,1.76561 -4.85549,7.63637 -8.43093,10.5054l8.51922 0 6.04733 -7.94527c0,0 2.47188,-3.04574 2.47188,-8.16608 -0.0882848,-3.39888 -0.353139,-6.79775 -5.51762,-12.7126 -2.3836,-2.42783 -16.3322,-15.8466 -14.1251,-22.5561 0,0 -0.750331,4.06101 -3.26636,7.4598 -1.85398,2.20712 -4.59072,6.04733 -4.59072,6.04733 0,0 -7.63637,7.72465 -0.662046,16.2439 2.11875,2.29532 7.06252,5.60591 2.6926,10.1083 -1.54498,1.32418 -8.73993,8.56336 -11.6532,11.5207l15.8907 0 7.28323 -7.37151z"></path>
  <path class="fil0" d="M39.0242 0l0 10.8353c-15.8847,2.03381 -28.2278,15.6042 -28.2278,32.085 0,14.5523 9.71315,26.9304 23.0732,30.928l-8.66125 8.20532c-14.8328,-6.83782 -25.1771,-21.7758 -25.1771,-39.1333 0,-22.4419 17.1471,-40.8514 38.993,-42.9203z"></path>
  <path class="fil0" d="M48.3516 10.8704l0 -10.8353c21.8109,2.13896 38.8528,20.5134 38.8528,42.8852 0,8.38072 -2.41949,16.1653 -6.59236,22.7576l-13.6406 0c5.85599,-5.85599 9.4327,-13.8509 9.4327,-22.7576 0,-16.4106 -12.238,-29.9461 -28.0526,-32.0499z"></path>
  <path class="fil1" d="M7.60537 84.5082c2.34943,1.2301 4.87416,2.3284 7.53911,3.31685 -2.66495,-0.988446 -5.18968,-2.08675 -7.53911,-3.31685zm71.4638 0c-2.24419,1.18613 -4.66369,2.24048 -7.25857,3.18505 2.59489,-0.944575 5.01438,-1.99892 7.25857,-3.18505l7.22359 0 0 5.82091 -86.2615 0 0 -5.82091 7.57419 0 71.4638 0z"></path>
  <path class="fil1" d="M7.60537 128.726c2.34943,1.2301 4.87416,2.3284 7.53911,3.31685 -2.66495,-0.988446 -5.18968,-2.08675 -7.53911,-3.31685zm71.4638 0c-2.24419,1.18613 -4.66369,2.24057 -7.25857,3.18505 2.59489,-0.944485 5.01438,-1.99892 7.25857,-3.18505l7.22359 0 0 5.82091 -86.2615 0 0 -5.82091 7.57419 0 71.4638 0z"></path>
  <path class="fil3" d="M79.444 61.3908c0,1.81655 -1.43413,3.28258 -3.28267,3.28258 -1.84845,0 -3.28258,-1.46604 -3.28258,-3.28258 0,-1.81664 1.43413,-3.25077 3.28258,-3.25077 1.84854,0 3.28267,1.43413 3.28267,3.25077l0 0m-3.28267 -2.709c-1.52976,0 -2.70891,1.17925 -2.70891,2.709 0,1.52976 1.17916,2.70891 2.70891,2.70891 1.52985,0 2.709,-1.21106 2.709,-2.70891 0,-1.52976 -1.17916,-2.709 -2.709,-2.709l0 0m-1.46595 0.860551c0.159348,0 0.350511,0.0318152 0.637391,0.0318152 0.159348,0 0.86046,-0.0318152 1.01981,-0.0318152 0.541764,0 1.24297,0.191163 1.24297,0.828554 0,0.637482 -0.509949,0.924272 -1.08362,0.987993 0.478043,0.605576 0.987993,1.21106 1.49794,1.81664 -0.191254,-0.0319058 -0.350601,-0.0319058 -0.541855,-0.0319058 -0.191163,0 -0.28679,0 -0.478043,0.0319058 -0.446138,-0.605576 -0.828645,-1.14734 -1.30669,-1.6891l-0.127442 0c0,0.541764 0,1.11543 0,1.6891 -0.127442,-0.0319058 -0.28679,-0.0319058 -0.414322,-0.0319058 -0.159348,0 -0.28679,0 -0.446138,0.0319058 0.0318152,-1.0199 0.0318152,-1.59357 0.0318152,-2.13533 0,-0.57367 0,-0.828645 -0.0318152,-1.49785l0 0m0.86046 1.59348c0.0956268,0 0.254975,0 0.382417,0 0.57367,0 0.828645,-0.382417 0.828645,-0.669297 0,-0.478043 -0.350601,-0.605485 -0.828645,-0.605485 -0.063721,0 -0.318696,0.0318152 -0.382417,0.0318152l0 1.24297z"></path>
 </g>
</svg>
