<?xml version="1.0" encoding="UTF-8" standalone="no"?>
<svg
   width="1622.229"
   zoomAndPan="magnify"
   viewBox="0 0 1216.6718 198.83594"
   height="265.11459"
   preserveAspectRatio="xMidYMid"
   version="1.0"
   id="svg40"
   sodipodi:docname="sonic-grid-logo-color.svg"
   inkscape:export-filename="sonic-grid-logo-color.png"
   inkscape:export-xdpi="96"
   inkscape:export-ydpi="96"
   xmlns:inkscape="http://www.inkscape.org/namespaces/inkscape"
   xmlns:sodipodi="http://sodipodi.sourceforge.net/DTD/sodipodi-0.dtd"
   xmlns="http://www.w3.org/2000/svg"
   xmlns:svg="http://www.w3.org/2000/svg">
  <sodipodi:namedview
     id="namedview40"
     pagecolor="#ffffff"
     bordercolor="#000000"
     borderopacity="0.25"
     inkscape:showpageshadow="2"
     inkscape:pageopacity="0.0"
     inkscape:pagecheckerboard="0"
     inkscape:deskcolor="#d1d1d1">
    <inkscape:page
       x="0"
       y="0"
       width="1216.6718"
       height="198.83594"
       id="page2"
       margin="0"
       bleed="0" />
  </sodipodi:namedview>
  <defs
     id="defs1">
    <clipPath
       id="31db5f6dbd">
      <path
         d="M 138.80859,54.753906 H 332.85937 V 253.63281 H 138.80859 Z m 0,0"
         clip-rule="nonzero"
         id="path1" />
    </clipPath>
    <clipPath
       id="6ab334c5c0">
      <rect
         x="0"
         width="1239"
         y="0"
         height="307"
         id="rect1" />
    </clipPath>
  </defs>
  <g
     transform="translate(-11.525304,-54.796875)"
     id="g40">
    <g
       clip-path="url(#6ab334c5c0)"
       id="g39">
      <g
         fill="#eb2f06"
         fill-opacity="1"
         id="g4">
        <g
           transform="translate(0.415929,229.78592)"
           id="g3">
          <g
             id="g2">
            <path
               d="m 67.5,1.53125 c -10.59375,0 -20.140625,-1.8125 -28.640625,-5.4375 -8.492187,-3.632812 -15.203125,-8.863281 -20.140625,-15.6875 -4.929688,-6.820312 -7.464844,-14.878906 -7.609375,-24.171875 h 32.65625 c 0.4375,6.242187 2.648437,11.179687 6.640625,14.8125 4,3.625 9.484375,5.4375 16.453125,5.4375 7.113281,0 12.703125,-1.703125 16.765625,-5.109375 4.0625,-3.414062 6.09375,-7.882812 6.09375,-13.40625 0,-4.5 -1.382812,-8.195312 -4.140625,-11.09375 -2.761719,-2.90625 -6.210937,-5.191406 -10.34375,-6.859375 -4.136719,-1.675781 -9.835937,-3.53125 -17.09375,-5.5625 -9.875,-2.90625 -17.898437,-5.769531 -24.0625,-8.59375 -6.167969,-2.832031 -11.464844,-7.113281 -15.890625,-12.84375 -4.429688,-5.738281 -6.640625,-13.398435 -6.640625,-22.984375 0,-9 2.25,-16.83594 6.75,-23.51562 4.5,-6.67579 10.8125,-11.78907 18.9375,-15.34375 8.132813,-3.5625 17.425781,-5.34375 27.875,-5.34375 15.675781,0 28.414063,3.8125 38.218755,11.4375 9.80078,7.61718 15.20703,18.24609 16.21875,31.89062 H 86.015625 c -0.292969,-5.22656 -2.507813,-9.54688 -6.640625,-12.95313 -4.136719,-3.41406 -9.617188,-5.12499 -16.4375,-5.12499 -5.960938,0 -10.71875,1.52734 -14.28125,4.57812 -3.554688,3.05469 -5.328125,7.48047 -5.328125,13.28125 0,4.0625 1.34375,7.4375 4.03125,10.125 2.6875,2.6875 6.023437,4.871094 10.015625,6.546875 4,1.667969 9.628906,3.589844 16.890625,5.765625 9.863281,2.898438 17.914063,5.796875 24.15625,8.703125 6.250005,2.90625 11.625005,7.265625 16.125005,13.078125 4.5,5.804688 6.75,13.421875 6.75,22.859375 0,8.125 -2.10547,15.671875 -6.3125,22.640625 C 110.77344,-14.375 104.60156,-8.816406 96.46875,-4.671875 88.34375,-0.535156 78.6875,1.53125 67.5,1.53125 Z m 0,0"
               id="path2" />
          </g>
        </g>
      </g>
      <g
         fill="#eb2f06"
         fill-opacity="1"
         id="g7">
        <g
           transform="translate(133.04146,229.78592)"
           id="g6">
          <g
             id="g5" />
        </g>
      </g>
      <g
         fill="#eb2f06"
         fill-opacity="1"
         id="g10">
        <g
           transform="translate(184.86934,229.78592)"
           id="g9">
          <g
             id="g8" />
        </g>
      </g>
      <g
         fill="#eb2f06"
         fill-opacity="1"
         id="g13">
        <g
           transform="translate(236.69722,229.78592)"
           id="g12">
          <g
             id="g11" />
        </g>
      </g>
      <g
         fill="#eb2f06"
         fill-opacity="1"
         id="g16">
        <g
           transform="translate(288.52511,229.78592)"
           id="g15">
          <g
             id="g14" />
        </g>
      </g>
      <g
         fill="#eb2f06"
         fill-opacity="1"
         id="g19">
        <g
           transform="translate(340.3669,229.78592)"
           id="g18">
          <g
             id="g17">
            <path
               d="M 145.03125,0 H 114.54688 L 45.515625,-104.3125 V 0 H 15.03125 V -152.21875 H 45.515625 L 114.54688,-47.6875 v -104.53125 h 30.48437 z m 0,0"
               id="path16" />
          </g>
        </g>
      </g>
      <g
         fill="#eb2f06"
         fill-opacity="1"
         id="g22">
        <g
           transform="translate(500.42358,229.78592)"
           id="g21">
          <g
             id="g20">
            <path
               d="M 45.515625,-152 V 0 H 15.03125 v -152 z m 0,0"
               id="path19" />
          </g>
        </g>
      </g>
      <g
         fill="#eb2f06"
         fill-opacity="1"
         id="g25">
        <g
           transform="translate(560.96202,229.78592)"
           id="g24">
          <g
             id="g23">
            <path
               d="m 7.625,-76.21875 c 0,-14.945312 3.375,-28.33594 10.125,-40.17188 6.75,-11.83203 15.96875,-21.05078 27.65625,-27.65624 11.6875,-6.60157 24.785156,-9.90625 39.296875,-9.90625 16.988285,0 31.867185,4.35546 44.640625,13.0625 12.78125,8.71093 21.71094,20.75781 26.79687,36.14062 h -35.06249 c -3.49219,-7.25781 -8.39063,-12.70313 -14.70313,-16.32813 -6.3125,-3.625 -13.605469,-5.4375 -21.875,-5.4375 -8.867188,0 -16.746094,2.07032 -23.640625,6.20313 -6.898437,4.13672 -12.265625,9.98047 -16.109375,17.53125 -3.84375,7.542969 -5.765625,16.398438 -5.765625,26.5625 0,10.023438 1.921875,18.84375 5.765625,26.46875 3.84375,7.617188 9.210938,13.492188 16.109375,17.625 6.894531,4.136719 14.773437,6.203125 23.640625,6.203125 8.269531,0 15.5625,-1.847656 21.875,-5.546875 6.3125,-3.695312 11.21094,-9.175781 14.70313,-16.4375 h 35.06249 c -5.08593,15.53125 -13.98046,27.621094 -26.6875,36.265625 C 116.75391,-3.003906 101.83594,1.3125 84.703125,1.3125 70.191406,1.3125 57.09375,-1.988281 45.40625,-8.59375 33.71875,-15.207031 24.5,-24.390625 17.75,-36.140625 11,-47.898438 7.625,-61.257812 7.625,-76.21875 Z m 0,0"
               id="path22" />
          </g>
        </g>
      </g>
      <g
         fill="#2d3436"
         fill-opacity="1"
         id="g28">
        <g
           transform="translate(728.21208,229.78592)"
           id="g27">
          <g
             id="g26">
            <path
               d="m 131.75,-107.79688 c -4.21094,-8.85156 -10.30859,-15.71093 -18.29687,-20.57812 -7.98047,-4.86328 -17.273442,-7.29687 -27.875005,-7.29687 -10.59375,0 -20.140625,2.43359 -28.640625,7.29687 -8.492188,4.86719 -15.167969,11.83594 -20.03125,20.90625 -4.867188,9.074219 -7.296875,19.5625 -7.296875,31.46875 0,11.90625 2.429687,22.359375 7.296875,31.359375 4.863281,9 11.539062,15.933594 20.03125,20.796875 8.5,4.867188 18.046875,7.296875 28.640625,7.296875 14.812505,0 27.003905,-4.425781 36.578125,-13.28125 9.58203,-8.863281 15.17578,-20.84375 16.78125,-35.9375 H 78.390625 V -81.875 H 160.0625 v 15.234375 c -1.16797,12.492187 -5.08984,23.929687 -11.76563,34.3125 C 141.61719,-21.953125 132.83203,-13.75 121.9375,-7.71875 111.05078,-1.695312 98.929688,1.3125 85.578125,1.3125 71.492188,1.3125 58.644531,-1.988281 47.03125,-8.59375 35.414062,-15.207031 26.234375,-24.390625 19.484375,-36.140625 12.734375,-47.898438 9.359375,-61.1875 9.359375,-76 c 0,-14.8125 3.375,-28.12891 10.125,-39.95313 6.75,-11.83203 15.929687,-21.05078 27.546875,-27.65624 11.613281,-6.61329 24.460938,-9.92188 38.546875,-9.92188 16.113285,0 30.375005,3.99609 42.781245,11.98438 12.41407,7.98046 21.45704,19.23046 27.125,33.74999 z m 0,0"
               id="path25" />
          </g>
        </g>
      </g>
      <g
         fill="#2d3436"
         fill-opacity="1"
         id="g31">
        <g
           transform="translate(897.63262,229.78592)"
           id="g30">
          <g
             id="g29">
            <path
               d="M 96.6875,0 60.53125,-62.0625 H 36.578125 V 0 h -19.8125 v -151.78125 h 49 c 11.46875,0 21.15625,1.96484 29.0625,5.89063 7.914065,3.91796 13.832035,9.21484 17.750005,15.89062 3.92578,6.67969 5.89062,14.29687 5.89062,22.85937 0,10.449224 -3.01562,19.667974 -9.04687,27.656255 -6.02344,7.992187 -15.058599,13.289063 -27.10938,15.890625 L 120.42188,0 Z M 36.578125,-77.953125 h 29.1875 c 10.738281,0 18.796875,-2.648437 24.171875,-7.953125 5.375,-5.300781 8.0625,-12.378906 8.0625,-21.23438 0,-9 -2.652344,-15.96875 -7.953125,-20.90624 -5.304687,-4.9375 -13.398437,-7.40625 -24.28125,-7.40625 h -29.1875 z m 0,0"
               id="path28" />
          </g>
        </g>
      </g>
      <g
         fill="#2d3436"
         fill-opacity="1"
         id="g34">
        <g
           transform="translate(1030.0332,229.78592)"
           id="g33">
          <g
             id="g32">
            <path
               d="M 36.578125,-151.78125 V 0 h -19.8125 v -151.78125 z m 0,0"
               id="path31" />
          </g>
        </g>
      </g>
      <g
         fill="#2d3436"
         fill-opacity="1"
         id="g37">
        <g
           transform="translate(1083.6032,229.78592)"
           id="g36">
          <g
             id="g35">
            <path
               d="m 64.015625,-151.78125 c 16.550781,0 30.890625,3.08984 43.015625,9.26563 12.125,6.16796 21.41406,14.98437 27.875,26.45312 6.45703,11.46875 9.6875,24.96875 9.6875,40.5 0,15.53125 -3.23047,28.996094 -9.6875,40.390625 -6.46094,11.398437 -15.75,20.109375 -27.875,26.140625 C 94.90625,-3.007812 80.566406,0 64.015625,0 h -47.25 v -151.78125 z m 0,135.453125 c 19.601563,0 34.554687,-5.1875 44.859375,-15.5625 10.3125,-10.382813 15.46875,-24.941406 15.46875,-43.671875 0,-18.875 -5.19531,-33.60938 -15.57812,-44.20313 -10.375005,-10.60156 -25.292974,-15.90624 -44.750005,-15.90624 h -27.4375 v 119.343745 z m 0,0"
               id="path34" />
          </g>
        </g>
      </g>
      <g
         clip-path="url(#31db5f6dbd)"
         id="g38">
        <path
           fill="#3498db"
           d="m 332.90625,145.86328 c 0.54297,2.08594 -0.90625,2.88281 -3.76172,2.85156 -10.07812,-0.11718 -20.16016,-0.14843 -30.23828,0.008 -2.9375,0.0469 -3.54688,-1.11719 -3.83984,-3.92188 -1.03125,-9.92969 -2.38672,-19.83594 -3.72657,-29.73047 -0.73047,-5.40234 0.25782,-5.4375 3.82422,-5.99218 7.24219,-1.11719 14.41406,-2.76954 21.55469,-4.47657 2.125,-0.50781 3.35547,-0.5625 4.52734,1.66407 6.35938,12.05468 10.09375,24.90624 11.66016,39.59765 z m -175.3125,2.76563 c 5.28125,0 10.57031,-0.0625 15.85156,0.0273 2.39453,0.043 3.09375,-0.95313 3.34375,-3.39453 1.10156,-10.78516 2.35156,-21.55859 3.82422,-32.29688 0.36328,-2.66796 -0.39453,-3.32421 -2.72266,-3.70703 -6.3789,-1.04687 -12.73828,-2.23047 -19.07421,-3.55859 -7.375,-1.55469 -7.44532,-1.69922 -10.73829,5.33203 -4.83984,10.34375 -8.08984,21.18359 -8.92187,32.6875 -0.35938,4.87109 -0.28125,4.90234 4.62891,4.9375 4.60156,0.0352 9.20703,0.008 13.80859,0.008 z m -15.80078,12.28515 c -1.88281,0 -3.20313,0.10156 -2.95703,2.86719 1.1875,13.66406 4.96484,26.48047 11.2539,38.54687 0.85547,1.64063 1.64063,2.95313 3.86719,2.47657 8.17188,-1.75 16.34766,-3.46485 24.5625,-4.98438 2.51953,-0.46875 2.24609,-1.6914 1.99219,-3.67969 -1.35938,-10.59765 -2.69531,-21.20312 -3.6836,-31.84375 -0.27343,-2.92578 -1.34375,-3.46875 -3.78906,-3.41015 -5.11719,0.11719 -10.24219,0.0391 -15.36719,0.0352 -5.29296,-0.004 -10.58593,0.004 -15.8789,-0.008 z m 156.47656,0 c -1.61719,0 -2.85547,0.10156 -3.11328,2.40625 -1.21094,10.77344 -2.59375,21.52735 -3.98438,32.28125 -0.30859,2.36328 -0.1875,3.88281 2.72266,4.39453 7.87891,1.39063 15.70703,3.10938 23.53125,4.77735 1.78125,0.38281 2.91016,-0.14063 3.76563,-1.75782 6.34765,-12.00781 10.26953,-24.76562 11.53906,-38.39453 0.2539,-2.73437 -0.50391,-3.83203 -3.26563,-3.75 -5.10937,0.14453 -10.22656,0.0391 -15.33984,0.043 z m -71.78125,-12.20703 c 2.57422,0.0586 3.625,-0.72266 3.57813,-3.57031 -0.14844,-9.3086 -0.12891,-18.62109 -0.0156,-27.92969 0.0312,-2.59765 -0.56641,-3.625 -3.35937,-3.75 -10.19922,-0.46484 -20.39454,-1.19922 -30.58204,-1.98047 -2.41015,-0.18359 -3.43359,0.70703 -3.71875,3.06641 -1.24218,10.25391 -2.51953,20.5039 -3.82812,30.75 -0.3125,2.48437 0.62891,3.46875 3.12891,3.41015 5.79687,-0.13281 11.60156,-0.043 17.40234,-0.043 5.79687,0 11.59766,-0.082 17.39453,0.0469 z m 35.77344,-0.0586 c 5.80078,0 11.60547,-0.12891 17.39844,0.0547 3.03515,0.0977 3.96875,-1.16406 3.625,-4.05859 -0.3711,-3.13672 -0.49219,-6.30469 -0.92969,-9.42969 -0.97656,-6.93359 -2.07813,-13.84375 -3.13672,-20.76562 -0.35547,-2.29688 -1.53125,-3.15234 -3.91016,-2.96875 -10.01562,0.78516 -20.03515,1.53516 -30.07031,1.96484 -2.83984,0.11719 -3.45312,1.20313 -3.4375,3.73828 0.0547,9.3086 0.0703,18.6211 -0.0391,27.92969 -0.0352,2.76172 0.97265,3.6875 3.61719,3.61719 5.625,-0.15235 11.26171,-0.0469 16.88671,-0.0469 z m -53.44141,12.26953 c -5.625,0 -11.25,0.10547 -16.87109,-0.043 -2.70703,-0.0703 -3.69141,0.96484 -3.34766,3.69141 1.22266,9.71484 2.40625,19.43359 3.55469,29.16406 0.35156,3.01953 1.625,4.02734 4.70703,3.76562 10.00391,-0.84765 20.03125,-1.42578 30.05859,-1.96093 2.45313,-0.12891 3.15235,-1.11719 3.125,-3.53907 -0.10156,-9.125 -0.14843,-18.25 0.0312,-27.37109 0.0625,-3.12891 -1.11328,-3.85156 -3.8789,-3.77344 -5.78516,0.16797 -11.58594,0.0508 -17.37891,0.0508 z m 54.04297,0 c -5.96875,0 -11.94141,0.043 -17.91406,-0.0234 -2.0625,-0.0234 -3.15625,0.57031 -3.14063,2.95313 0.0703,9.48828 0.0742,18.97656 0.0117,28.46484 -0.0117,2.16797 0.75781,3.12891 2.95313,3.25 10.03906,0.5625 20.07812,1.15625 30.10156,1.95312 3.09375,0.2461 4.27734,-0.92968 4.64844,-3.96093 1.17187,-9.73828 2.5039,-19.45313 3.78125,-29.17578 0.375,-2.84766 -0.95703,-3.59375 -3.54688,-3.51954 -5.625,0.15625 -11.26172,0.0469 -16.89062,0.0469 z m -32.84766,49.11328 c 0,-1.93359 -0.98437,-2.42188 -2.57421,-2.31641 -9.51563,0.64063 -19.02735,1.3125 -28.54688,1.92578 -1.89453,0.1211 -2.39844,1.03516 -1.77344,2.75 4.78125,13.0625 10.53516,25.53907 20.91797,35.01172 3.29297,3.00782 7.02735,5.44922 11.95703,6.51172 0,-14.84375 -0.0156,-29.36719 0.0195,-43.88281 z M 201.375,99.984375 c 8.33984,0.488285 16.69141,0.769535 25.02734,1.316405 3.04688,0.20313 3.6836,-1.08203 3.65625,-3.937499 -0.12109,-12.640625 -0.0469,-25.289062 -0.0703,-37.933593 0,-1.304688 -0.16797,-2.609376 -0.30859,-4.632813 -19.22657,8.734375 -26.47657,25.917969 -33.2461,44.03125 1.98828,0.480469 3.45313,1.066406 4.94141,1.15625 z m 40.41797,-1.652344 c -0.0156,2.871099 1.52734,3.062499 3.61719,2.953129 8.35156,-0.44532 16.71093,-0.8125 25.0625,-1.312504 1.46093,-0.08594 2.89062,-0.65625 4.73046,-1.101562 -6.78515,-18.167969 -14.01953,-35.410156 -33.37109,-44.050782 0,15.066407 0.0469,29.289063 -0.0352,43.511719 z m 3.50781,109.335939 c -3.37891,-0.28906 -3.52344,1.5039 -3.51562,4.09765 0.0625,12.83204 0.0234,25.66407 0.0469,38.5 0,1 0.22656,1.9961 0.34766,3.00782 12.5664,-2.21875 28.82422,-23.84375 32.61718,-43.53516 -10.12109,-0.6875 -19.82031,-1.24609 -29.49609,-2.07031 z m -48.44141,32.375 c -4,-8.3086 -7.74218,-16.75391 -11.40234,-25.23047 -0.9375,-2.17188 -1.71484,-3.54688 -4.39453,-2.99609 -7.14453,1.47656 -14.33594,2.73437 -22.19531,4.20703 11.8125,15.51953 26.20703,26.09765 44.04297,33.14062 -2.3125,-3.42578 -4.58204,-6.0664 -6.05079,-9.12109 z m 72.19532,8.03906 c 1.14453,-0.12109 2.46093,0.10156 3.40234,-0.41406 6.46094,-3.52344 13.05469,-6.85547 19.19141,-10.91797 8.02734,-5.30859 14.76562,-12.17969 20.95703,-20.66406 -7.27344,-1.46094 -13.90235,-2.83594 -20.55078,-4.11328 -4.33203,-0.83204 -4.54688,-0.62891 -6.13672,3.89843 -4.07813,11.59375 -9.07422,22.69532 -16.73828,32.32813 z m 38.14453,-28.07031 0.0586,-0.24219 0.2461,-0.15625 -0.20313,0.0234 z M 278.85156,76.628906 c 2.77344,5.609375 4.98438,11.535156 7.16406,17.429688 0.94141,2.539062 2.08594,3.71875 4.82813,3.175781 4.51953,-0.894531 9.09375,-1.496094 13.61328,-2.375 2.54688,-0.496094 5.03516,-1.300781 7.75,-2.019531 -8.66016,-12.9375 -25.625,-25.695313 -42.74609,-32.296875 3.29687,5.585937 6.70312,10.648437 9.39062,16.085937 z M 202.69531,60.582031 c -12.5,3.882813 -23.00781,11.226563 -32.58203,20.09375 -3.85937,3.566407 -7.77344,7.175781 -10.80859,12.636719 7.23828,1.34375 13.90234,2.527344 20.53906,3.839844 3.24219,0.640625 4.91406,-0.539063 5.97656,-3.8125 3.85547,-11.886719 9.28125,-22.976563 16.84766,-32.871094 z m 0,0 0.0898,-0.296875 -0.11719,0.1875 z m 66.35938,187.499999 0.1289,0.11719 z m 0,0"
           fill-opacity="1"
           fill-rule="nonzero"
           id="path37" />
      </g>
    </g>
  </g>
</svg>
